<?xml version="1.0" encoding="UTF-8" standalone="no"?>
<svg
   width="157"
   height="20.444"
   fill="none"
   version="1.1"
   id="svg4"
   sodipodi:docname="be4aeb885ecda1f121a44f5e2e25478a.svg"
   xmlns:inkscape="http://www.inkscape.org/namespaces/inkscape"
   xmlns:sodipodi="http://sodipodi.sourceforge.net/DTD/sodipodi-0.dtd"
   xmlns="http://www.w3.org/2000/svg"
   xmlns:svg="http://www.w3.org/2000/svg">
  <defs
     id="defs8" />
  <sodipodi:namedview
     id="namedview6"
     pagecolor="#ffffff"
     bordercolor="#666666"
     borderopacity="1.0"
     inkscape:pageshadow="2"
     inkscape:pageopacity="0.0"
     inkscape:pagecheckerboard="0" />
  <path
     fill="#000000"
     d="M 93.293,0 C 90.05,0 86.88,2.805 86.516,6.858 V 0.334 h -4.657 v 19.671 h 4.714 v -9.521 c 0,-2.667 1.979,-6.43 6.72,-6.43 z m 49.485,16.856 V 3.379 h 2.731 c 3.641,0 6.599,2.174 6.599,6.63 0,4.456 -2.958,6.847 -6.599,6.847 z m -4.665,3.152 h 7.965 c 4.892,0 10.922,-3.043 10.922,-9.999 0,-6.847 -6.03,-9.673 -10.922,-9.673 h -7.965 z m -17.889,-9.78 c 0,-3.587 1.934,-6.521 5.12,-6.521 3.072,0 4.779,2.934 4.779,6.52 0,3.587 -1.707,6.522 -4.779,6.522 -3.186,0 -5.12,-2.935 -5.12,-6.521 m -4.779,0.217 c 0,5.869 3.186,9.999 8.192,9.999 3.641,0 5.803,-2.282 6.941,-5.978 v 5.543 h 4.664 V 0.338 h -4.664 v 5.216 c -1.024,-3.477 -3.186,-5.542 -6.599,-5.542 -5.12,0 -8.534,4.456 -8.534,10.433 M 9.216,20.444 C 3.413,20.444 0,15.988 0,10.445 0,4.685 3.755,0.012 10.923,0.012 c 7.395,0 9.898,4.782 10.012,7.499 h -5.347 c -0.114,-1.522 -1.48,-3.804 -4.78,-3.804 -3.526,0 -5.802,2.934 -5.802,6.52 0,3.587 2.276,6.522 5.803,6.522 3.186,0 4.551,-2.391 5.12,-4.782 h -5.12 V 10.01 h 10.743 v 10 H 16.84 v -6.304 c -0.341,2.282 -1.82,6.738 -7.623,6.738 z m 21.892,-0.002 c -4.437,0 -7.168,-2.825 -7.168,-8.477 V 0.336 h 4.779 v 11.63 c 0,2.934 1.479,4.347 3.982,4.347 4.892,0 6.713,-5.76 6.713,-9.782 V 0.336 h 4.778 v 19.672 h -4.664 v -7.282 c -0.91,4.021 -3.414,7.717 -8.42,7.717 z M 72.741,0 C 68.664,0 66.092,3.762 65.253,7.24 65.109,2.58 62.709,0 58.87,0 55.552,0 52.474,2.826 51.675,7.297 V 0.335 h -4.658 v 19.672 h 4.718 v -7.052 c 0,-1.749 0.763,-8.924 5.512,-8.924 3.077,0 3.398,2.651 3.398,6.275 v 9.701 h 4.716 v -7.052 c 0,-1.749 0.794,-8.924 5.544,-8.924 3.074,0 3.392,2.651 3.392,6.275 v 9.701 h 4.722 V 8.372 C 79.041,2.79 76.977,0.002 72.741,0.002 Z m 30.674,0 c -6.109,0 -10.247,4.575 -10.247,10.222 0,6.221 3.936,10.22 10.247,10.22 6.108,0 10.32,-4.574 10.32,-10.22 C 113.735,4 109.722,0 103.415,0 m 0,16.96 c -3.556,0 -5.86,-2.875 -5.86,-6.738 0,-3.863 2.312,-6.74 5.86,-6.74 3.547,0 5.766,2.876 5.766,6.74 0,3.863 -2.221,6.739 -5.766,6.739 z"
     id="path2" />
</svg>
